<?xml version="1.0" encoding="UTF-8"?>
<svg id="Layer_1" data-name="Layer 1" xmlns="http://www.w3.org/2000/svg" xmlns:xlink="http://www.w3.org/1999/xlink" viewBox="0 0 782.64 166.57">
  <defs>
    <style>
      .cls-1 {
        fill: url(#linear-gradient-2);
      }

      .cls-2 {
        fill: url(#linear-gradient-3);
      }

      .cls-3 {
        fill: #a78bfa;
      }

      .cls-4 {
        fill: url(#linear-gradient);
      }
    </style>
    <linearGradient id="linear-gradient" x1="322" y1="85.88" x2="61.27" y2="85.88" gradientUnits="userSpaceOnUse">
      <stop offset="0" stop-color="#fff"/>
      <stop offset=".4" stop-color="#a78bfa"/>
      <stop offset=".53" stop-color="#c084fc"/>
      <stop offset=".84" stop-color="#fbbf77"/>
    </linearGradient>
    <linearGradient id="linear-gradient-2" x1="397.84" y1="70.52" x2="141.9" y2="70.52" gradientUnits="userSpaceOnUse">
      <stop offset="0" stop-color="#fff"/>
      <stop offset=".27" stop-color="#a78bfa"/>
      <stop offset=".54" stop-color="#c084fc"/>
      <stop offset=".78" stop-color="#fbbf77"/>
    </linearGradient>
    <linearGradient id="linear-gradient-3" x1="64.81" y1="293" x2="64.81" y2="-4.08" gradientUnits="userSpaceOnUse">
      <stop offset="0" stop-color="#fff"/>
      <stop offset=".32" stop-color="#a78bfa"/>
      <stop offset=".53" stop-color="#c084fc"/>
      <stop offset=".78" stop-color="#fbbf77"/>
    </linearGradient>
  </defs>
  <g>
    <path class="cls-4" d="M172.39,135.08c-9.31,0-17.37-2.05-24.2-6.14-6.83-4.1-12.11-9.82-15.85-17.19-3.74-7.36-5.62-15.97-5.62-25.81s1.87-18.47,5.62-25.87c3.74-7.4,9.03-13.15,15.85-17.25,6.83-4.09,14.89-6.14,24.2-6.14s17.37,2.05,24.2,6.14c6.83,4.1,12.11,9.85,15.85,17.25,3.74,7.4,5.62,16.03,5.62,25.87s-1.87,18.45-5.62,25.81c-3.74,7.36-9.03,13.09-15.85,17.19-6.83,4.1-14.89,6.14-24.2,6.14ZM172.52,117.09c5.05,0,9.27-1.4,12.66-4.19,3.39-2.79,5.93-6.55,7.6-11.26s2.51-9.97,2.51-15.76-.84-11.12-2.51-15.85c-1.68-4.74-4.21-8.51-7.6-11.32-3.39-2.81-7.61-4.22-12.66-4.22s-9.46,1.41-12.88,4.22c-3.41,2.81-5.96,6.59-7.63,11.32-1.68,4.74-2.51,10.02-2.51,15.85s.84,11.05,2.51,15.76c1.68,4.72,4.22,8.47,7.63,11.26,3.41,2.79,7.7,4.19,12.88,4.19Z"/>
    <path class="cls-1" d="M272.41,134.9c-7.49,0-14.19-1.92-20.1-5.77-5.92-3.85-10.59-9.43-14.02-16.75-3.43-7.32-5.15-16.22-5.15-26.68s1.75-19.54,5.24-26.84c3.5-7.3,8.22-12.82,14.18-16.57,5.96-3.74,12.6-5.62,19.92-5.62,5.58,0,10.18.94,13.77,2.82,3.6,1.88,6.45,4.14,8.56,6.76,2.11,2.63,3.74,5.1,4.9,7.41h.93V6.14h22.52v127.08h-22.09v-15.02h-1.37c-1.16,2.32-2.83,4.77-5.03,7.35-2.19,2.59-5.09,4.79-8.69,6.61-3.6,1.82-8.13,2.73-13.59,2.73ZM278.68,116.47c4.76,0,8.81-1.29,12.16-3.88,3.35-2.58,5.89-6.19,7.63-10.83,1.74-4.63,2.61-10.03,2.61-16.2s-.86-11.52-2.57-16.07c-1.72-4.55-4.24-8.09-7.57-10.61-3.33-2.52-7.42-3.79-12.25-3.79s-9.18,1.3-12.53,3.91-5.87,6.2-7.57,10.8c-1.7,4.59-2.54,9.85-2.54,15.76s.86,11.26,2.57,15.92c1.72,4.65,4.26,8.32,7.63,10.98,3.37,2.67,7.52,4,12.44,4Z"/>
    <path class="cls-3" d="M389.38,135.08c-9.56,0-17.8-2-24.73-5.99-6.93-3.99-12.26-9.66-15.98-17-3.72-7.34-5.58-16-5.58-25.97s1.87-18.42,5.62-25.84c3.74-7.42,8.99-13.22,15.73-17.37,6.74-4.16,14.66-6.24,23.76-6.24,5.87,0,11.43.94,16.66,2.82,5.23,1.88,9.87,4.79,13.9,8.72,4.03,3.93,7.21,8.93,9.52,14.99,2.32,6.06,3.47,13.27,3.47,21.62v6.89h-78.12v-15.14h56.59c-.04-4.3-.97-8.14-2.79-11.51-1.82-3.37-4.35-6.03-7.6-7.97-3.25-1.94-7.02-2.92-11.32-2.92-4.59,0-8.62,1.11-12.1,3.32-3.47,2.21-6.17,5.11-8.1,8.69s-2.91,7.5-2.95,11.76v13.22c0,5.54,1.01,10.29,3.04,14.24,2.03,3.95,4.86,6.97,8.5,9.06,3.64,2.09,7.9,3.13,12.78,3.13,3.27,0,6.23-.47,8.87-1.4,2.65-.93,4.94-2.31,6.89-4.13,1.94-1.82,3.41-4.07,4.41-6.76l20.97,2.36c-1.32,5.54-3.84,10.37-7.54,14.49-3.7,4.12-8.43,7.3-14.18,9.56-5.75,2.25-12.33,3.38-19.73,3.38Z"/>
    <path class="cls-3" d="M535.87,37.91l-33.94,95.31h-24.82l-33.94-95.31h23.95l21.9,70.8h.99l21.97-70.8h23.89Z"/>
    <path class="cls-3" d="M578.81,135.14c-6.04,0-11.47-1.09-16.29-3.26-4.82-2.17-8.62-5.39-11.42-9.65s-4.19-9.51-4.19-15.76c0-5.38.99-9.82,2.98-13.34,1.99-3.52,4.69-6.33,8.13-8.44,3.43-2.11,7.31-3.71,11.63-4.81,4.32-1.1,8.8-1.89,13.43-2.39,5.58-.58,10.11-1.11,13.59-1.58,3.47-.48,6.01-1.22,7.6-2.23,1.59-1.01,2.39-2.6,2.39-4.75v-.37c0-4.67-1.39-8.29-4.16-10.86-2.77-2.56-6.76-3.85-11.98-3.85-5.5,0-9.86,1.2-13.06,3.6-3.21,2.4-5.37,5.23-6.48,8.5l-20.97-2.98c1.65-5.79,4.38-10.64,8.19-14.55,3.81-3.91,8.46-6.85,13.96-8.81,5.5-1.96,11.58-2.95,18.24-2.95,4.59,0,9.16.54,13.71,1.61,4.55,1.08,8.71,2.84,12.47,5.3,3.76,2.46,6.79,5.8,9.09,10.02s3.44,9.49,3.44,15.82v63.79h-21.59v-13.09h-.74c-1.36,2.65-3.28,5.12-5.74,7.41-2.46,2.3-5.54,4.14-9.24,5.52-3.7,1.38-8.04,2.08-13,2.08ZM584.64,118.64c4.51,0,8.42-.9,11.73-2.7,3.31-1.8,5.86-4.19,7.66-7.17s2.7-6.23,2.7-9.74v-11.23c-.7.58-1.89,1.12-3.57,1.61-1.68.5-3.55.93-5.62,1.3s-4.12.7-6.14.99c-2.03.29-3.79.54-5.27.74-3.35.46-6.35,1.2-9,2.23-2.65,1.03-4.74,2.47-6.27,4.31-1.53,1.84-2.3,4.21-2.3,7.1,0,4.14,1.51,7.26,4.53,9.37,3.02,2.11,6.87,3.16,11.54,3.16Z"/>
    <path class="cls-3" d="M674.24,77.38v55.84h-22.46V37.91h21.47v16.19h1.12c2.19-5.34,5.7-9.58,10.52-12.72,4.82-3.14,10.79-4.72,17.9-4.72,6.58,0,12.32,1.41,17.22,4.22,4.9,2.81,8.71,6.89,11.42,12.22,2.71,5.34,4.04,11.81,4,19.42v60.68h-22.46v-57.21c0-6.37-1.64-11.35-4.93-14.95-3.29-3.6-7.83-5.4-13.62-5.4-3.93,0-7.41.86-10.46,2.58-3.04,1.72-5.42,4.19-7.14,7.41-1.72,3.23-2.58,7.14-2.58,11.73Z"/>
    <path class="cls-3" d="M769.61,24.39c-3.56,0-6.62-1.2-9.18-3.6-2.57-2.4-3.85-5.27-3.85-8.62s1.28-6.22,3.85-8.59c2.56-2.38,5.63-3.57,9.18-3.57s6.67,1.2,9.21,3.6c2.54,2.4,3.82,5.27,3.82,8.62s-1.27,6.22-3.82,8.59c-2.54,2.38-5.62,3.57-9.21,3.57ZM758.32,133.22V37.91h22.46v95.31h-22.46Z"/>
  </g>
  <path class="cls-2" d="M108.69,67.99l-24.17-24.14c-2.03-2.03-5.33-2.02-7.36.02l-38.1,38.54c-2.01,2.03-2.01,5.31.01,7.34l38.63,38.8c1.76,1.77,4.63,1.77,6.39,0l24.59-24.72,20.82,20.88-37.45,37.61c-5.61,5.63-14.72,5.68-20.38.1L4.32,96.13c-5.72-5.63-5.76-14.84-.09-20.52L69.81,9.99c5.55-5.55,14.52-5.66,20.2-.24l39.6,37.79-20.92,20.44Z"/>
</svg>